<svg version="1.2" xmlns="http://www.w3.org/2000/svg" viewBox="0 0 112 112" width="16" height="16"><style>.a{fill:#fff}</style><path class="a" d="m56 104.1h-7.4c-3.7 0-3.7 0-3.7 3.7 0 3.6 0 3.6 3.7 3.6h7.4c3.7 0 3.7 0 3.7-3.6 0-3.7 0-3.7-3.7-3.7zm-22.2 0h-7.5c-3.6 0-3.6 0-3.6 3.7 0 3.6 0 3.6 3.6 3.6h7.5c3.6 0 3.6 0 3.6-3.6 0-3.7 0-3.7-3.6-3.7zm44.4-7.3c-3.6 0-3.6 0-3.6 3.6v3.7h-3.7c-3.7 0-3.7 0-3.7 3.7 0 3.6 0 3.6 3.7 3.6h7.3c3.7 0 3.7 0 3.7-3.6v-7.4c0-3.6 0-3.6-3.7-3.6zm-66.6 7.3h-3.7v-3.7c0-3.6 0-3.6-3.7-3.6-3.6 0-3.8 0-3.8 3.6v7.5c0 3.7 0 3.7 3.7 3.7h7.5c3.6 0 3.6 0 3.6-3.7 0-3.8 0-3.8-3.6-3.8zm66.6-29.5c-3.6 0-3.6 0-3.6 3.6v7.5c0 3.6 0 3.6 3.6 3.6 3.7 0 3.7 0 3.7-3.6v-7.5c0-3.6 0-3.6-3.7-3.6zm-74.1 14.7c3.7 0 3.7 0 3.7-3.6v-7.5c0-3.6 0-3.6-3.7-3.6-3.7 0-3.7 0-3.7 3.6v7.5c0 3.6 0 3.6 3.7 3.6zm107.5-11.1v-74.1c0-3.7 0-3.7-3.7-3.7h-74.1c-3.7 0-3.7 0-3.7 3.7v74.1c0 3.7 0 3.7 3.7 3.7h74.1c3.7 0 3.7 0 3.7-3.7zm-107.5-11.1c3.7 0 3.7 0 3.7-3.7v-7.4c0-3.7 0-3.7-3.7-3.7-3.7 0-3.7 0-3.7 3.7v7.4c0 3.7 0 3.7 3.7 3.7zm74.1-37h-7.4c-3.7 0-3.7 0-3.7 3.7 0 3.6 0 3.6 3.7 3.6h3.6v3.7c0 3.7 0 3.7 3.7 3.7 3.7 0 3.7 0 3.7-3.7v-7.3c0.1-3.7 0.1-3.7-3.6-3.7zm-22.2 0h-7.4c-3.7 0-3.7 0-3.7 3.7 0 3.6 0 3.6 3.7 3.6h7.4c3.7 0 3.7 0 3.7-3.6 0-3.7 0-3.7-3.7-3.7zm-22.2 0h-7.5c-3.6 0-3.6 0-3.6 3.7 0 3.6 0 3.6 3.6 3.6h7.5c3.6 0 3.6 0 3.6-3.6 0-3.7 0-3.7-3.6-3.7zm-22.2 0h-7.5c-3.7 0-3.7 0-3.7 3.7v7.4c0 3.7 0 3.7 3.7 3.7 3.7 0 3.7 0 3.7-3.7v-3.6h3.8c3.6 0 3.6 0 3.6-3.7 0-3.7 0-3.8-3.6-3.8zm66.6 22.2c-3.6 0-3.6 0-3.6 3.7v7.4c0 3.7 0 3.7 3.6 3.7 3.7 0 3.7 0 3.7-3.7v-7.4c0-3.7 0-3.7-3.7-3.7z"/></svg>